<svg width="22" height="19" viewBox="0 0 22 19" fill="none" xmlns="http://www.w3.org/2000/svg">
<path d="M11.47 18.2727L2.70863 9.51136C2.00977 8.8125 1.54386 8 1.3109 7.07386C1.08363 6.14773 1.08647 5.22727 1.31942 4.3125C1.55238 3.39205 2.01545 2.59091 2.70863 1.90909C3.41886 1.21023 4.22852 0.747159 5.13761 0.519886C6.05238 0.286932 6.96431 0.286932 7.8734 0.519886C8.78818 0.752841 9.60068 1.21591 10.3109 1.90909L11.47 3.03409L12.6291 1.90909C13.345 1.21591 14.1575 0.752841 15.0666 0.519886C15.9757 0.286932 16.8848 0.286932 17.7939 0.519886C18.7086 0.747159 19.5211 1.21023 20.2314 1.90909C20.9245 2.59091 21.3876 3.39205 21.6206 4.3125C21.8535 5.22727 21.8535 6.14773 21.6206 7.07386C21.3933 8 20.9302 8.8125 20.2314 9.51136L11.47 18.2727Z" fill="#FF0000"/>
</svg>
