<svg width="400" height="400" viewBox="0 0 400 400" fill="none" xmlns="http://www.w3.org/2000/svg">
<path d="M161.838 188.167C158.699 185.028 154.443 183.265 150.004 183.265C145.566 183.265 141.309 185.028 138.171 188.167C135.033 191.305 133.27 195.562 133.27 200C133.27 204.438 135.033 208.695 138.171 211.833L188.171 261.833C189.728 263.378 191.575 264.6 193.606 265.43C195.637 266.259 197.811 266.679 200.004 266.667C202.286 266.594 204.528 266.054 206.593 265.079C208.657 264.104 210.499 262.716 212.004 261L328.671 127.667C331.365 124.322 332.664 120.067 332.297 115.788C331.93 111.509 329.926 107.537 326.702 104.7C323.478 101.863 319.283 100.38 314.992 100.56C310.702 100.74 306.646 102.569 303.671 105.667L200.004 225.667L161.838 188.167Z" fill="#00558F"/>
<path d="M349.999 183.333C345.579 183.333 341.34 185.089 338.214 188.215C335.088 191.34 333.332 195.58 333.332 200C333.332 235.362 319.285 269.276 294.28 294.281C269.275 319.286 235.361 333.333 199.999 333.333C173.667 333.321 147.929 325.513 126.029 310.892C104.129 296.272 87.0479 275.494 76.9405 251.18C66.8331 226.865 64.1516 200.102 69.234 174.265C74.3164 148.428 86.9352 124.675 105.499 106C117.844 93.4897 132.56 83.5673 148.787 76.8135C165.013 70.0597 182.423 66.6101 199.999 66.6666C210.657 66.7334 221.275 67.9629 231.666 70.3333C233.84 71.0059 236.129 71.226 238.392 70.98C240.655 70.734 242.843 70.0271 244.822 68.903C246.802 67.7788 248.529 66.2612 249.9 64.4437C251.27 62.6262 252.253 60.5473 252.789 58.3352C253.325 56.1231 253.402 53.8247 253.016 51.5816C252.629 49.3386 251.787 47.1985 250.542 45.2932C249.297 43.3879 247.675 41.7578 245.776 40.5035C243.876 39.2492 241.74 38.3972 239.499 38C226.552 34.954 213.3 33.3884 199.999 33.3333C167.071 33.5044 134.932 43.4253 107.637 61.8442C80.3426 80.263 59.1153 106.354 46.6345 136.826C34.1536 167.297 30.9785 200.782 37.5097 233.056C44.041 265.33 59.986 294.946 83.3325 318.167C114.277 349.126 156.227 366.565 199.999 366.667C244.202 366.667 286.594 349.107 317.85 317.851C349.106 286.595 366.666 244.203 366.666 200C366.666 195.58 364.91 191.34 361.784 188.215C358.659 185.089 354.419 183.333 349.999 183.333Z" fill="#00558F"/>
</svg>
