<svg width="213" height="72" viewBox="0 0 213 72" fill="none" xmlns="http://www.w3.org/2000/svg">
<path d="M200.438 59H24.5627C21.231 59 18.0356 59.3161 15.6797 59.8787C13.3238 60.4413 12.0002 61.2044 12.0002 62C12.0002 62.7956 13.3238 63.5587 15.6797 64.1213C18.0356 64.6839 21.231 65 24.5627 65H200.438C203.77 65 206.965 64.6839 209.321 64.1213C211.677 63.5587 213 62.7956 213 62C213 61.2044 211.677 60.4413 209.321 59.8787C206.965 59.3161 203.77 59 200.438 59Z" fill="#00558F"/>
<path d="M14.8394 53.4211H15.1065L27.4824 52.2933C28.8381 52.1582 30.1061 51.5609 31.0735 50.6016L57.784 23.8911C58.8207 22.7959 59.381 21.3343 59.3421 19.8268C59.3031 18.3192 58.6681 16.8885 57.5763 15.8483L49.4444 7.7164C48.3831 6.71949 46.9923 6.14748 45.5367 6.10917C44.0811 6.07087 42.6622 6.56894 41.55 7.50865L14.8394 34.2192C13.8801 35.1866 13.2828 36.4545 13.1478 37.8102L11.8716 50.1861C11.8316 50.6208 11.888 51.059 12.0368 51.4694C12.1856 51.8798 12.423 52.2523 12.7323 52.5604C13.0096 52.8354 13.3385 53.0531 13.7001 53.2008C14.0617 53.3485 14.4489 53.4233 14.8394 53.4211ZM45.3191 11.8714L53.4213 19.9736L47.4856 25.7608L39.5318 17.807L45.3191 11.8714Z" fill="#00558F"/>
<path d="M81.0653 34.1307C80.929 32.7557 80.3438 31.6875 79.3097 30.9261C78.2756 30.1648 76.8722 29.7841 75.0994 29.7841C73.8949 29.7841 72.8778 29.9545 72.0483 30.2955C71.2188 30.625 70.5824 31.0852 70.1392 31.6761C69.7074 32.267 69.4915 32.9375 69.4915 33.6875C69.4688 34.3125 69.5994 34.858 69.8835 35.3239C70.179 35.7898 70.5824 36.1932 71.0938 36.5341C71.6051 36.8636 72.196 37.1534 72.8665 37.4034C73.5369 37.642 74.2528 37.8466 75.0142 38.017L78.1506 38.767C79.6733 39.108 81.071 39.5625 82.3438 40.1307C83.6165 40.6989 84.7188 41.3977 85.6506 42.2273C86.5824 43.0568 87.304 44.0341 87.8153 45.1591C88.3381 46.2841 88.6051 47.5739 88.6165 49.0284C88.6051 51.1648 88.0597 53.017 86.9801 54.5852C85.9119 56.142 84.3665 57.3523 82.3438 58.2159C80.3324 59.0682 77.9063 59.4943 75.0653 59.4943C72.2472 59.4943 69.7926 59.0625 67.7017 58.1989C65.6222 57.3352 63.9972 56.0568 62.8267 54.3636C61.6676 52.6591 61.0597 50.5511 61.0028 48.0398H68.1449C68.2244 49.2102 68.5597 50.1875 69.1506 50.9716C69.7528 51.7443 70.554 52.3295 71.554 52.7273C72.5653 53.1136 73.7074 53.3068 74.9801 53.3068C76.2301 53.3068 77.3153 53.125 78.2358 52.7614C79.1676 52.3977 79.8892 51.892 80.4006 51.2443C80.9119 50.5966 81.1676 49.8523 81.1676 49.0114C81.1676 48.2273 80.9347 47.5682 80.4688 47.0341C80.0142 46.5 79.3438 46.0455 78.4574 45.6705C77.5824 45.2955 76.5085 44.9545 75.2358 44.6477L71.4347 43.6932C68.4915 42.9773 66.1676 41.858 64.4631 40.3352C62.7585 38.8125 61.9119 36.7614 61.9233 34.1818C61.9119 32.0682 62.4744 30.2216 63.6108 28.642C64.7585 27.0625 66.3324 25.8295 68.3324 24.9432C70.3324 24.0568 72.6051 23.6136 75.1506 23.6136C77.7415 23.6136 80.0028 24.0568 81.9347 24.9432C83.8778 25.8295 85.3892 27.0625 86.4688 28.642C87.5483 30.2216 88.1051 32.0511 88.1392 34.1307H81.0653ZM105.376 59.5114C102.683 59.5114 100.365 58.9659 98.4219 57.875C96.4901 56.7727 95.0014 55.2159 93.956 53.2045C92.9105 51.1818 92.3878 48.7898 92.3878 46.0284C92.3878 43.3352 92.9105 40.9716 93.956 38.9375C95.0014 36.9034 96.473 35.3182 98.3707 34.1818C100.28 33.0455 102.518 32.4773 105.087 32.4773C106.814 32.4773 108.422 32.7557 109.911 33.3125C111.411 33.858 112.717 34.6818 113.831 35.7841C114.956 36.8864 115.831 38.2727 116.456 39.9432C117.081 41.6023 117.393 43.5455 117.393 45.7727V47.767H95.2855V43.267H110.558C110.558 42.2216 110.331 41.2955 109.876 40.4886C109.422 39.6818 108.791 39.0511 107.984 38.5966C107.189 38.1307 106.263 37.8977 105.206 37.8977C104.104 37.8977 103.126 38.1534 102.274 38.6648C101.433 39.1648 100.774 39.8409 100.297 40.6932C99.8196 41.5341 99.5753 42.4716 99.5639 43.5057V47.7841C99.5639 49.0795 99.8026 50.1989 100.28 51.142C100.768 52.0852 101.456 52.8125 102.342 53.3239C103.229 53.8352 104.28 54.0909 105.496 54.0909C106.303 54.0909 107.041 53.9773 107.712 53.75C108.382 53.5227 108.956 53.1818 109.433 52.7273C109.911 52.2727 110.274 51.7159 110.524 51.0568L117.24 51.5C116.899 53.1136 116.2 54.5227 115.143 55.7273C114.098 56.9205 112.746 57.8523 111.087 58.5227C109.439 59.1818 107.536 59.5114 105.376 59.5114ZM122.132 59V32.8182H129.393V59H122.132ZM125.78 29.4432C124.7 29.4432 123.774 29.0852 123.001 28.3693C122.24 27.642 121.859 26.7727 121.859 25.7614C121.859 24.7614 122.24 23.9034 123.001 23.1875C123.774 22.4602 124.7 22.0966 125.78 22.0966C126.859 22.0966 127.78 22.4602 128.541 23.1875C129.314 23.9034 129.7 24.7614 129.7 25.7614C129.7 26.7727 129.314 27.642 128.541 28.3693C127.78 29.0852 126.859 29.4432 125.78 29.4432ZM135.21 59V32.8182H142.25V37.3864H142.523C143 35.7614 143.801 34.5341 144.926 33.7045C146.051 32.8636 147.347 32.4432 148.812 32.4432C149.176 32.4432 149.568 32.4659 149.989 32.5114C150.409 32.5568 150.778 32.6193 151.097 32.6989V39.142C150.756 39.0398 150.284 38.9489 149.682 38.8693C149.08 38.7898 148.528 38.75 148.028 38.75C146.96 38.75 146.006 38.983 145.165 39.4489C144.335 39.9034 143.676 40.5398 143.188 41.358C142.71 42.1761 142.472 43.1193 142.472 44.1875V59H135.21ZM161.567 59.4943C159.896 59.4943 158.408 59.2045 157.101 58.625C155.794 58.0341 154.76 57.1648 153.999 56.017C153.249 54.858 152.874 53.4148 152.874 51.6875C152.874 50.233 153.141 49.0114 153.675 48.0227C154.209 47.0341 154.936 46.2386 155.857 45.6364C156.777 45.0341 157.822 44.5795 158.993 44.2727C160.175 43.9659 161.413 43.75 162.709 43.625C164.232 43.4659 165.459 43.3182 166.391 43.1818C167.322 43.0341 167.999 42.8182 168.419 42.5341C168.839 42.25 169.05 41.8295 169.05 41.2727V41.1705C169.05 40.0909 168.709 39.2557 168.027 38.6648C167.357 38.0739 166.402 37.7784 165.163 37.7784C163.857 37.7784 162.817 38.0682 162.044 38.6477C161.271 39.2159 160.76 39.9318 160.51 40.7955L153.794 40.25C154.135 38.6591 154.805 37.2841 155.805 36.125C156.805 34.9545 158.095 34.0568 159.675 33.4318C161.266 32.7955 163.107 32.4773 165.197 32.4773C166.652 32.4773 168.044 32.6477 169.374 32.9886C170.714 33.3295 171.902 33.858 172.936 34.5739C173.982 35.2898 174.805 36.2102 175.408 37.3352C176.01 38.4489 176.311 39.7841 176.311 41.3409V59H169.425V55.3693H169.22C168.8 56.1875 168.237 56.9091 167.533 57.5341C166.828 58.1477 165.982 58.6307 164.993 58.983C164.004 59.3239 162.862 59.4943 161.567 59.4943ZM163.646 54.483C164.714 54.483 165.658 54.2727 166.476 53.8523C167.294 53.4205 167.936 52.8409 168.402 52.1136C168.868 51.3864 169.101 50.5625 169.101 49.642V46.8636C168.874 47.0114 168.561 47.1477 168.163 47.2727C167.777 47.3864 167.339 47.4943 166.851 47.5966C166.362 47.6875 165.874 47.7727 165.385 47.8523C164.896 47.9205 164.453 47.983 164.055 48.0398C163.203 48.1648 162.459 48.3636 161.822 48.6364C161.186 48.9091 160.692 49.2784 160.339 49.7443C159.987 50.1989 159.811 50.767 159.811 51.4489C159.811 52.4375 160.169 53.1932 160.885 53.7159C161.612 54.2273 162.533 54.483 163.646 54.483ZM189.206 43.8636V59H181.945V32.8182H188.865V37.4375H189.172C189.751 35.9148 190.723 34.7102 192.087 33.8239C193.45 32.9261 195.104 32.4773 197.047 32.4773C198.865 32.4773 200.45 32.875 201.803 33.6705C203.155 34.4659 204.206 35.6023 204.956 37.0795C205.706 38.5455 206.081 40.2955 206.081 42.3295V59H198.82V43.625C198.831 42.0227 198.422 40.7727 197.592 39.875C196.763 38.9659 195.621 38.5114 194.166 38.5114C193.189 38.5114 192.325 38.7216 191.575 39.142C190.837 39.5625 190.257 40.1761 189.837 40.983C189.428 41.7784 189.217 42.7386 189.206 43.8636Z" fill="#00558F"/>
</svg>
