<svg width="45" height="37" viewBox="0 0 45 37" fill="none" xmlns="http://www.w3.org/2000/svg">
<path d="M39.4814 0.547997C39.221 0.337422 38.9169 0.187862 38.5911 0.110311C38.2654 0.0327598 37.9265 0.0291893 37.5992 0.0998627L20.1667 4.02104L2.7343 0.0550492C2.40184 -0.0200372 2.05663 -0.0182891 1.72495 0.0601595C1.39326 0.138608 1.08385 0.29169 0.820248 0.507754C0.556649 0.723819 0.345816 0.997171 0.203793 1.30701C0.0617707 1.61684 -0.00769729 1.95499 0.000676417 2.29572V29.6319C-0.0119826 30.1499 0.155249 30.6562 0.473905 31.0648C0.792561 31.4733 1.24295 31.7588 1.7484 31.8726L19.6738 35.9058H20.1667H20.6597L38.5851 31.8726C39.0905 31.7588 39.5409 31.4733 39.8596 31.0648C40.1782 30.6562 40.3455 30.1499 40.3328 29.6319V2.29572C40.3313 1.95916 40.2539 1.62727 40.1065 1.32471C39.9591 1.02214 39.7454 0.756663 39.4814 0.547997ZM4.48202 5.09657L17.9261 8.12148V30.8643L4.48202 27.8394V5.09657ZM35.8515 27.8394L22.4074 30.8643V8.12148L35.8515 5.09657V27.8394Z" fill="#F0F8FF"/>
</svg>
