<svg width="50" height="50" viewBox="0 0 50 50" fill="none" xmlns="http://www.w3.org/2000/svg">
<path d="M14.8336 26.1458C13.0222 26.5788 11.408 27.6061 10.2488 29.0636C9.08949 30.5212 8.45189 32.3252 8.43773 34.1875V40.6667C8.43488 40.7988 8.45881 40.9301 8.50806 41.0527C8.55731 41.1753 8.63086 41.2867 8.72429 41.3801C8.81772 41.4735 8.9291 41.5471 9.05171 41.5964C9.17432 41.6456 9.30563 41.6695 9.43773 41.6667L16.1877 41.5417C17.6957 41.5441 19.1728 41.1135 20.4432 40.301C21.7136 39.4885 22.7241 38.3283 23.3544 36.9583C24.0012 35.6672 24.267 34.2186 24.1207 32.782C23.9743 31.3453 23.422 29.98 22.5281 28.8458C21.6343 27.7116 20.436 26.8553 19.0734 26.3772C17.7107 25.8991 16.2401 25.8188 14.8336 26.1458Z" fill="#F0F8FF"/>
<path d="M40.1244 9.29167C39.2502 8.60231 38.1498 8.26494 37.0395 8.3459C35.9292 8.42686 34.8893 8.9203 34.1244 9.72917L20.8327 23.0833C20.6521 23.2666 20.5508 23.5135 20.5508 23.7708C20.5508 24.0281 20.6521 24.2751 20.8327 24.4583L25.5202 29.1667C25.7034 29.3473 25.9504 29.4486 26.2077 29.4486C26.465 29.4486 26.712 29.3473 26.8952 29.1667L40.4161 15.6875C40.8166 15.2851 41.1334 14.8072 41.348 14.2815C41.5625 13.7558 41.6707 13.1928 41.6661 12.625C41.6808 11.9885 41.5495 11.3571 41.2823 10.7793C41.0151 10.2015 40.6189 9.69258 40.1244 9.29167Z" fill="#F0F8FF"/>
</svg>
